<svg xmlns="http://www.w3.org/2000/svg" xmlns:xlink="http://www.w3.org/1999/xlink" viewBox="0 0 32 32" id="Algorithms"><defs><linearGradient id="a"><stop offset="0" stop-color="#c900ff" class="stopColor000092 svgShape"></stop><stop offset="1" stop-color="#f600ff" class="stopColorff00f3 svgShape"></stop></linearGradient><linearGradient id="b" x1="2" x2="27" y1="16.5" y2="16.5" gradientUnits="userSpaceOnUse" xlink:href="#a"></linearGradient></defs><path style="line-height:normal;text-indent:0;text-align:start;text-decoration-line:none;text-decoration-style:solid;text-decoration-color:#000;text-transform:none;block-progression:tb;isolation:auto;mix-blend-mode:normal" fill="url(#b)" d="M15 4a.5.5 0 0 0-.5.5v4a.5.5 0 0 0 .346.475.5.5 0 0 0 .049.013.5.5 0 0 0 .1.012A.5.5 0 0 0 15 9h1.5v2h-7a.5.5 0 0 0-.5.5V14H7.5a.5.5 0 0 0-.5.5v4a.5.5 0 0 0 .002.043A.5.5 0 0 0 7.5 19H9v2H4.5a.5.5 0 0 0-.5.5V24H2.5a.5.5 0 0 0-.5.5v4a.5.5 0 0 0 .002.043A.5.5 0 0 0 2.5 29h4a.5.5 0 0 0 .498-.457A.5.5 0 0 0 7 28.5v-4l-.008.01A.5.5 0 0 0 6.5 24H5v-2h9v2h-1.5a.5.5 0 0 0-.5.5v4a.5.5 0 0 0 .002.041.5.5 0 0 0 .498.459h4a.5.5 0 0 0 .498-.459A.5.5 0 0 0 17 28.5v-4l-.008.01A.5.5 0 0 0 16.5 24H15v-2.5a.5.5 0 0 0-.5-.5H10v-2h1.5a.5.5 0 0 0 .498-.459A.5.5 0 0 0 12 18.5v-4l-.008.01A.5.5 0 0 0 11.5 14H10v-2h14v2h-1.5a.5.5 0 0 0-.5.5v4a.5.5 0 0 0 .002.041.5.5 0 0 0 .498.459h1.498v2.5a.5.5 0 0 0 .5.5H27v2h-1.5a.5.5 0 0 0-.5.5v4a.5.5 0 0 0 .002.041.5.5 0 0 0 .498.459h4a.5.5 0 0 0 .498-.459A.5.5 0 0 0 30 28.5v-4l-.008.01A.5.5 0 0 0 29.5 24H28v-2.5a.5.5 0 0 0-.5-.5h-2.502v-2H26.5a.5.5 0 0 0 .498-.459A.5.5 0 0 0 27 18.5v-4l-.008.01A.5.5 0 0 0 26.5 14H25v-2.5a.5.5 0 0 0-.5-.5h-7V9H19a.5.5 0 0 0 .05 0 .5.5 0 0 0 .05-.01.5.5 0 0 0 .4-.49v-4l-.008.01A.5.5 0 0 0 19 4h-4zm.5 1h3v3h-1.383a.5.5 0 0 0-.125-.014.5.5 0 0 0-.113.014H15.5V5zM8 15h1.424a.5.5 0 0 0 .146 0H11v3H9.617a.5.5 0 0 0-.125-.014.5.5 0 0 0-.113.014H8v-3zm15 0h1.424a.5.5 0 0 0 .146 0H26v3h-1.424a.5.5 0 0 0-.086-.006.5.5 0 0 0-.076.006H23v-3zM3 25h1.424a.5.5 0 0 0 .146 0H6v3H3v-3zm10 0h1.424a.5.5 0 0 0 .146 0H16v3h-3v-3zm13 0h1.424a.5.5 0 0 0 .146 0H29v3h-3v-3z" color="#000" font-family="sans-serif" font-weight="400" overflow="visible"></path></svg>