<svg xmlns="http://www.w3.org/2000/svg" fill-rule="evenodd" stroke-linejoin="round" stroke-miterlimit="2" clip-rule="evenodd" viewBox="0 0 24 24" id="ChannelAdd"><path d="M207,27.829L207,30.145C205.555,30.576 204.5,31.916 204.5,33.5C204.5,33.969 204.592,34.417 204.76,34.826L202.904,36.682C202.386,36.256 201.723,36 201,36C199.344,36 198,37.344 198,39C198,40.656 199.344,42 201,42C202.656,42 204,40.656 204,39C204,38.817 203.983,38.637 203.952,38.462L206.025,36.389C206.587,36.774 207.267,37 208,37C208.733,37 209.413,36.774 209.975,36.389L212.048,38.462C212.017,38.637 212,38.817 212,39C212,40.656 213.344,42 215,42C216.656,42 218,40.656 218,39C218,37.344 216.656,36 215,36C214.277,36 213.614,36.256 213.096,36.682L211.24,34.826C211.408,34.417 211.5,33.969 211.5,33.5C211.5,31.916 210.445,30.576 209,30.145L209,27.829C210.165,27.417 211,26.305 211,25C211,23.344 209.656,22 208,22C206.344,22 205,23.344 205,25C205,26.305 205.835,27.417 207,27.829ZM215,38C215.552,38 216,38.448 216,39C216,39.552 215.552,40 215,40C214.448,40 214,39.552 214,39C214,38.448 214.448,38 215,38ZM201,38C201.552,38 202,38.448 202,39C202,39.552 201.552,40 201,40C200.448,40 200,39.552 200,39C200,38.448 200.448,38 201,38ZM209.236,34.35L208.85,34.736C208.608,34.902 208.316,35 208,35C207.172,35 206.5,34.328 206.5,33.5C206.5,32.672 207.172,32 208,32C208.828,32 209.5,32.672 209.5,33.5C209.5,33.816 209.402,34.108 209.236,34.35ZM214,28L212,28L212,30L214,30L214,32L216,32L216,30L218,30L218,28L216,28L216,26L214,26L214,28ZM208,24C208.552,24 209,24.448 209,25C209,25.552 208.552,26 208,26C207.448,26 207,25.552 207,25C207,24.448 207.448,24 208,24Z" transform="translate(-196 -20)" fill="#770078" class="color000000 svgShape"></path></svg>