<svg xmlns="http://www.w3.org/2000/svg" enable-background="new 0 0 512 512" viewBox="0 0 512 512" id="AssociationRule"><path d="M283.471 442.518h-21.236v-12.254h-.002V299.982h-12.649v142.535h-21.025c-1.906 0-3.451 1.545-3.451 3.449v54.916c0 1.904 1.545 3.449 3.451 3.449h54.913c1.904 0 3.449-1.545 3.449-3.449v-54.916C286.92 444.063 285.375 442.518 283.471 442.518zM500.904 442.529h-49.66L298.65 289.934c-1.672 4.039-4.908 7.252-8.992 8.881l141.326 141.324c-.002.002-.002.004-.002.008l11.545 11.545v49.189c0 1.908 1.541 3.449 3.451 3.449h54.926c1.906 0 3.449-1.541 3.449-3.449v-54.902C504.354 444.07 502.811 442.529 500.904 442.529zM11.095 69.492H60.31l11.529 11.529c.002 0 .004 0 .004-.002l141.238 141.24c1.627-4.086 4.84-7.322 8.881-9.016L69.468 60.752V11.119c0-1.91-1.541-3.451-3.449-3.451H11.095c-1.91 0-3.449 1.541-3.449 3.451v54.924C7.646 67.928 9.185 69.492 11.095 69.492zM228.526 69.482h21.059v.01h-.002V212.01h12.649V82.133h.002v-12.65h21.205c1.904 0 3.449-1.545 3.449-3.451V11.119c0-1.906-1.545-3.451-3.449-3.451h-54.913c-1.906 0-3.451 1.545-3.451 3.451v54.912C225.075 67.938 226.62 69.482 228.526 69.482zM11.099 286.906h54.916c1.904 0 3.449-1.543 3.449-3.449v-21.125h12.65v-.008h129.799v-12.65H69.468v.008h-.004v-21.139c0-1.906-1.545-3.449-3.449-3.449H11.099c-1.904 0-3.449 1.543-3.449 3.449v54.914C7.649 285.363 9.194 286.906 11.099 286.906zM504.316 283.457v-54.914c0-1.906-1.547-3.449-3.451-3.449h-54.914c-1.904 0-3.451 1.543-3.451 3.449v21.131H299.908v12.65h129.943v.008H442.5v21.125c0 1.906 1.547 3.449 3.451 3.449h54.914C502.77 286.906 504.316 285.363 504.316 283.457zM228.448 286.896h54.923c1.887 0 3.451-1.541 3.451-3.451v-54.9c0-1.91-1.564-3.451-3.451-3.451h-54.923c-1.908 0-3.449 1.541-3.449 3.451v54.9C224.999 285.355 226.54 286.896 228.448 286.896zM298.668 222.047L439.811 80.906c.002 0 .002 0 .004.002l11.414-11.416h49.629c1.908 0 3.449-1.564 3.449-3.449V11.119c0-1.91-1.541-3.451-3.449-3.451h-54.902c-1.908 0-3.449 1.541-3.449 3.451v49.197L289.648 213.172C293.732 214.797 296.973 218.01 298.668 222.047zM213.077 289.744L60.294 442.529H11.142c-1.908 0-3.449 1.541-3.449 3.449v54.902c0 1.908 1.541 3.449 3.449 3.449h54.902c1.908 0 3.449-1.541 3.449-3.449v-49.674l11.408-11.408c-.002-.002-.002-.004-.002-.004l.002-.002 141.072-141.051C217.937 297.068 214.7 293.809 213.077 289.744z" fill="#c900ff" class="color000000 svgShape"></path><rect width="12.648" height="20.699" x="32.233" y="155.338" fill="#c900ff" class="color000000 svgShape"></rect><rect width="12.648" height="20.701" x="32.233" y="118.537" fill="#c900ff" class="color000000 svgShape"></rect><rect width="12.648" height="20.701" x="32.233" y="192.137" fill="#c900ff" class="color000000 svgShape"></rect><rect width="12.648" height="20.699" x="32.233" y="81.738" fill="#c900ff" class="color000000 svgShape"></rect><rect width="12.648" height="20.699" x="32.233" y="372.764" fill="#c900ff" class="color000000 svgShape"></rect><rect width="12.648" height="20.701" x="32.233" y="409.563" fill="#c900ff" class="color000000 svgShape"></rect><rect width="12.648" height="20.699" x="32.233" y="335.963" fill="#c900ff" class="color000000 svgShape"></rect><rect width="12.648" height="20.701" x="32.233" y="299.162" fill="#c900ff" class="color000000 svgShape"></rect><rect width="12.65" height="20.701" x="467.082" y="118.537" fill="#c900ff" class="color000000 svgShape"></rect><rect width="12.65" height="20.701" x="467.082" y="192.137" fill="#c900ff" class="color000000 svgShape"></rect><rect width="12.65" height="20.699" x="467.082" y="81.738" fill="#c900ff" class="color000000 svgShape"></rect><rect width="12.65" height="20.699" x="467.082" y="155.338" fill="#c900ff" class="color000000 svgShape"></rect><rect width="12.65" height="20.701" x="467.082" y="409.563" fill="#c900ff" class="color000000 svgShape"></rect><rect width="12.65" height="20.699" x="467.082" y="335.963" fill="#c900ff" class="color000000 svgShape"></rect><rect width="12.65" height="20.701" x="467.082" y="299.162" fill="#c900ff" class="color000000 svgShape"></rect><rect width="12.65" height="20.699" x="467.082" y="372.764" fill="#c900ff" class="color000000 svgShape"></rect><rect width="20.701" height="12.65" x="335.945" y="32.25" fill="#c900ff" class="color000000 svgShape"></rect><rect width="20.699" height="12.65" x="299.146" y="32.25" fill="#c900ff" class="color000000 svgShape"></rect><rect width="20.699" height="12.65" x="372.746" y="32.25" fill="#c900ff" class="color000000 svgShape"></rect><rect width="20.699" height="12.65" x="409.547" y="32.25" fill="#c900ff" class="color000000 svgShape"></rect><rect width="20.699" height="12.65" x="81.722" y="32.25" fill="#c900ff" class="color000000 svgShape"></rect><rect width="20.701" height="12.65" x="118.521" y="32.25" fill="#c900ff" class="color000000 svgShape"></rect><rect width="20.699" height="12.65" x="155.321" y="32.25" fill="#c900ff" class="color000000 svgShape"></rect><rect width="20.701" height="12.65" x="192.12" y="32.25" fill="#c900ff" class="color000000 svgShape"></rect><rect width="20.701" height="12.65" x="372.777" y="467.102" fill="#c900ff" class="color000000 svgShape"></rect><rect width="20.699" height="12.65" x="409.578" y="467.102" fill="#c900ff" class="color000000 svgShape"></rect><rect width="20.699" height="12.65" x="335.979" y="467.102" fill="#c900ff" class="color000000 svgShape"></rect><rect width="20.699" height="12.65" x="299.178" y="467.102" fill="#c900ff" class="color000000 svgShape"></rect><rect width="20.699" height="12.65" x="155.353" y="467.102" fill="#c900ff" class="color000000 svgShape"></rect><rect width="20.701" height="12.65" x="118.552" y="467.102" fill="#c900ff" class="color000000 svgShape"></rect><rect width="20.701" height="12.65" x="192.151" y="467.102" fill="#c900ff" class="color000000 svgShape"></rect><rect width="20.699" height="12.65" x="81.753" y="467.102" fill="#c900ff" class="color000000 svgShape"></rect></svg>