<svg xmlns="http://www.w3.org/2000/svg" width="612" height="612" version="1.0" id="email"><g stroke="#fff"><path stroke-width="3.408" d="M82.35 17.339c-41.335 0-64.571 21.371-64.571 65.036v450.122c0 40.843 20.891 62.228 62.192 62.228h452.024c41.303 0 62.226-20.32 62.226-62.228V82.375c0-42.6-20.923-65.036-63.523-65.036 0 0-448.491-.142-448.348 0z"></path><path fill="none" stroke-width="30.655" d="M510.857 445.868V145.054H102.143v300.814h408.714z"></path><path fill="none" stroke-width="30.655" d="m105.945 148.886 176.32 178.668c13.069 13.17 36.848 13.014 49.641.12l176.199-177.35M111.999 435.962l135.095-138.106M499.451 434.37 367.999 299.771"></path></g></svg>