<svg xmlns="http://www.w3.org/2000/svg" enable-background="new 0 0 52 52" viewBox="0 0 52 52" id="OnlineDataServer"><path fill="#f8eddd" d="M47.52006,14.12778v29.01H4.4801v-29.01c0-1.06,0.85999-1.91998,1.90997-1.91998h39.22002
						C46.66008,12.2078,47.52006,13.06779,47.52006,14.12778z" class="colorddecf8 svgShape"></path><path d="M47.52006,14.13234v29.01H4.4801v-2.95996h10.54998c15.91998,0,28.96001-12.33001,30.08001-27.97002h0.5
						C46.66008,12.21235,47.52006,13.07234,47.52006,14.13234z" opacity=".07" fill="#000000" class="color000000 svgShape"></path><path fill="#cd7600" d="M50.0001,44.31778c0,1.57001-0.63,2.99005-1.66003,4.02002
						c-1.02997,1.02002-2.45001,1.65997-4.02002,1.65997H7.68011c-3.14001,0-5.67999-2.53998-5.67999-5.67999
						c0-0.63995,0.50995-1.14996,1.14996-1.14996h45.7C49.48008,43.16781,50.0001,43.67782,50.0001,44.31778z" class="colore5a25a svgShape"></path><path fill="#ffffff" d="M11.09008,50.00232H7.68011c-3.14001,0-5.67999-2.53997-5.67999-5.67999
						c0-0.63995,0.50995-1.14996,1.14996-1.14996h4.25c-0.51996,0-0.94,0.51001-0.94,1.14996
						C6.46008,47.46234,8.53008,50.00232,11.09008,50.00232z" opacity=".1" class="colorffffff svgShape"></path><path d="M50.0001,44.32233c0,1.57001-0.63,2.99005-1.66003,4.02002c-1.02997,1.02002-2.45001,1.65997-4.02002,1.65997h-3.40997
						c1.28003,0,2.44-0.63995,3.28003-1.65997c0.82996-1.02997,1.34998-2.45001,1.34998-4.02002
						c0-0.63995-0.42999-1.14996-0.94-1.14996h4.25C49.48008,43.17236,50.0001,43.68237,50.0001,44.32233z" opacity=".05" fill="#000000" class="color000000 svgShape"></path><path fill="#f5b866" d="M43.30322,3.16312v7.47601c0,0.63568-0.52511,1.14696-1.16079,1.14696H9.84098
						c-0.63568,0-1.14696-0.51128-1.14696-1.14696V3.16312c0-0.63568,0.51128-1.16079,1.14696-1.16079h32.30146
						C42.77811,2.00233,43.30322,2.52744,43.30322,3.16312z" class="color66cdf5 svgShape"></path><path fill="#efb05a" d="M43.30322,12.94687v7.47601c0,0.63568-0.52511,1.14696-1.16079,1.14696H9.84098
						c-0.63568,0-1.14696-0.51128-1.14696-1.14696v-7.47601c0-0.63568,0.51128-1.16079,1.14696-1.16079h32.30146
						C42.77811,11.78608,43.30322,12.31119,43.30322,12.94687z" class="coloref5a76 svgShape"></path><path fill="#f4b55f" d="M43.30322,22.73062v7.47601c0,0.63568-0.52511,1.14696-1.16079,1.14696H9.84098
							c-0.63568,0-1.14696-0.51128-1.14696-1.14696v-7.47601c0-0.63568,0.51128-1.16079,1.14696-1.16079h32.30146
							C42.77811,21.56983,43.30322,22.09494,43.30322,22.73062z" class="colorf4c45f svgShape"></path><path d="M43.3062,22.72823v7.47571c0,0.6391-0.52978,1.15204-1.16046,1.15204H9.84068
							c-0.6391,0-1.14368-0.51294-1.14368-1.15204v-0.81566h27.87349c2.63206,0,4.76801-2.13595,4.76801-4.76801v-3.05251h0.80724
							C42.77642,21.56777,43.3062,22.09755,43.3062,22.72823z" opacity=".07" fill="#000000" class="color000000 svgShape"></path><path d="M43.3062,12.95059v7.47571c0,0.6391-0.52978,1.15204-1.16046,1.15204H9.84068
							c-0.6391,0-1.14368-0.51294-1.14368-1.15204v-0.81566h27.87349c2.63206,0,4.76801-2.13595,4.76801-4.768v-3.05251h0.80724
							C42.77642,11.79013,43.3062,12.31991,43.3062,12.95059z" opacity=".07" fill="#000000" class="color000000 svgShape"></path><path d="M43.3062,3.17296v7.47571c0,0.6391-0.52978,1.15204-1.16046,1.15204H9.84068
							c-0.6391,0-1.14368-0.51294-1.14368-1.15204V9.83301h27.87349c2.63206,0,4.76801-2.13595,4.76801-4.768V2.0125h0.80724
							C42.77642,2.0125,43.3062,2.54228,43.3062,3.17296z" opacity=".07" fill="#000000" class="color000000 svgShape"></path><path fill="#664c29" d="M48.8501,42.16773h-0.33008V14.12769c0-1.60986-1.30566-2.91992-2.91016-2.91992h-1.39337
				c0.05084-0.18237,0.08673-0.37061,0.08673-0.56885V3.16334c0-1.19189-0.96924-2.16113-2.16064-2.16113H9.84082
				c-1.18408,0-2.14697,0.96924-2.14697,2.16113v7.47559c0,0.19824,0.03571,0.38647,0.08618,0.56885H6.39014
				c-1.60449,0-2.91016,1.31006-2.91016,2.91992v28.04004H3.1499C1.96436,42.16773,1,43.13209,1,44.31763
				c0,3.68359,2.99658,6.68018,6.68018,6.68018h36.63965C47.9537,50.99781,51,48.07923,51,44.31763
				C51,43.13209,50.03564,42.16773,48.8501,42.16773z M42.30322,22.73072v7.47607c0,0.07959-0.07373,0.14697-0.16064,0.14697
				H9.84082c-0.08398,0-0.14697-0.06299-0.14697-0.14697v-7.47607c0-0.08691,0.06738-0.16064,0.14697-0.16064h32.30176
				C42.22656,22.57008,42.30322,22.64674,42.30322,22.73072z M42.30322,12.94703v7.47608c0,0.07959-0.07373,0.14697-0.16064,0.14697
				H9.84082c-0.08398,0-0.14697-0.06299-0.14697-0.14697v-7.47608c0-0.0874,0.06738-0.16113,0.14697-0.16113h32.30176
				C42.22656,12.7859,42.30322,12.86256,42.30322,12.94703z M9.69385,3.16334c0-0.0874,0.06738-0.16113,0.14697-0.16113h32.30176
				c0.08398,0,0.16064,0.07666,0.16064,0.16113v7.47559c0,0.07959-0.07373,0.14697-0.16064,0.14697H9.84082
				c-0.08398,0-0.14697-0.06299-0.14697-0.14697V3.16334z M5.47998,14.12769c0-0.50732,0.4082-0.91992,0.91016-0.91992h1.30371
				v7.21533c0,0.42395,0.12744,0.81702,0.34027,1.15021c-0.21283,0.33533-0.34027,0.73083-0.34027,1.15741v7.47607
				c0,1.18408,0.96289,2.14697,2.14697,2.14697h32.30176c1.19141,0,2.16064-0.96289,2.16064-2.14697v-7.47607
				c0-0.42657-0.12823-0.82208-0.34247-1.15741c0.21423-0.33319,0.34247-0.72626,0.34247-1.15021v-7.21533h1.30664
				c0.50195,0,0.91016,0.4126,0.91016,0.91992v28.01025H5.47998V14.12769z M44.31982,48.99781H7.68018
				C5.09961,48.99781,3,46.8982,3,44.31763c0-0.08691,0.06299-0.1499,0.1499-0.1499h45.7002c0.08252,0,0.1499,0.06738,0.1499,0.1499
				C49,46.97369,46.85097,48.99781,44.31982,48.99781z" class="color293c66 svgShape"></path><path fill="#664c29" d="M13.06201 7.90064H25.0415c.55225 0 1-.44775 1-1s-.44775-1-1-1H13.06201c-.55225 0-1 .44775-1 1S12.50977 7.90064 13.06201 7.90064zM38.93176 8.27851c.76001 0 1.38184-.60803 1.38184-1.38184 0-.76001-.62183-1.3819-1.38184-1.3819s-1.38184.62189-1.38184 1.3819C37.54993 7.67048 38.17175 8.27851 38.93176 8.27851zM34.67828 8.27851c.76001 0 1.38184-.60803 1.38184-1.38184 0-.76001-.62183-1.3819-1.38184-1.3819s-1.38184.62189-1.38184 1.3819C33.29645 7.67048 33.91827 8.27851 34.67828 8.27851zM30.4248 8.27851c.75995 0 1.38184-.60803 1.38184-1.38184 0-.76001-.62189-1.3819-1.38184-1.3819-.76001 0-1.3819.62189-1.3819 1.3819C29.04291 7.67048 29.66479 8.27851 30.4248 8.27851zM13.06201 17.68433H25.0415c.55225 0 1-.44775 1-1s-.44775-1-1-1H13.06201c-.55225 0-1 .44775-1 1S12.50977 17.68433 13.06201 17.68433zM38.93176 18.06226c.76001 0 1.38184-.60803 1.38184-1.3819 0-.75995-.62183-1.38184-1.38184-1.38184s-1.38184.62189-1.38184 1.38184C37.54993 17.45423 38.17175 18.06226 38.93176 18.06226zM34.67828 18.06226c.76001 0 1.38184-.60803 1.38184-1.3819 0-.75995-.62183-1.38184-1.38184-1.38184s-1.38184.62189-1.38184 1.38184C33.29645 17.45423 33.91827 18.06226 34.67828 18.06226zM30.4248 18.06226c.75995 0 1.38184-.60803 1.38184-1.3819 0-.75995-.62189-1.38184-1.38184-1.38184-.76001 0-1.3819.62189-1.3819 1.38184C29.04291 17.45423 29.66479 18.06226 30.4248 18.06226zM13.06201 27.46803H25.0415c.55225 0 1-.44775 1-1s-.44775-1-1-1H13.06201c-.55225 0-1 .44775-1 1S12.50977 27.46803 13.06201 27.46803zM38.93176 27.84602c.76001 0 1.38184-.60803 1.38184-1.3819 0-.75995-.62183-1.38184-1.38184-1.38184s-1.38184.62189-1.38184 1.38184C37.54993 27.23798 38.17175 27.84602 38.93176 27.84602zM34.67828 27.84602c.76001 0 1.38184-.60803 1.38184-1.3819 0-.75995-.62183-1.38184-1.38184-1.38184s-1.38184.62189-1.38184 1.38184C33.29645 27.23798 33.91827 27.84602 34.67828 27.84602zM30.4248 27.84602c.75995 0 1.38184-.60803 1.38184-1.3819 0-.75995-.62189-1.38184-1.38184-1.38184-.76001 0-1.3819.62189-1.3819 1.38184C29.04291 27.23798 29.66479 27.84602 30.4248 27.84602z" class="color293c66 svgShape"></path></svg>